<svg width="24" height="25" viewBox="0 0 24 25" fill="none" xmlns="http://www.w3.org/2000/svg">
<path d="M7.2502 9.5002C7.2502 9.08599 7.58599 8.7502 8.0002 8.7502H11.0002C11.4144 8.7502 11.7502 9.08599 11.7502 9.5002C11.7502 9.91442 11.4144 10.2502 11.0002 10.2502H8.0002C7.58599 10.2502 7.2502 9.91442 7.2502 9.5002Z" fill="#393A44"/>
<path fill-rule="evenodd" clip-rule="evenodd" d="M1.28869 3.26303C1.41968 2.87008 1.84442 2.65771 2.23737 2.78869L2.54176 2.89015C3.16813 3.09892 3.69746 3.27534 4.1137 3.46898C4.55613 3.6748 4.94002 3.92989 5.23112 4.33377C5.52222 4.73764 5.64282 5.1825 5.69817 5.66732C5.70129 5.69459 5.70421 5.72221 5.70696 5.7502L16.511 5.7502C17.4869 5.75016 18.3034 5.75013 18.9278 5.84257C19.5793 5.93901 20.2076 6.16069 20.6038 6.7616C21 7.3625 20.9563 8.02731 20.7883 8.66406C20.6273 9.27441 20.3057 10.0248 19.9212 10.9218L19.4544 12.0111C19.2778 12.4232 19.1224 12.7857 18.961 13.0727C18.7862 13.3834 18.5728 13.6656 18.2497 13.8786C17.9266 14.0916 17.5832 14.1766 17.2288 14.2149C16.9014 14.2503 16.507 14.2502 16.0587 14.2502H6.15378C6.22758 14.3842 6.31252 14.4945 6.40921 14.5912C6.68598 14.868 7.07455 15.0484 7.80832 15.1471C8.56367 15.2486 9.56479 15.2502 11.0002 15.2502H19.0002C19.4144 15.2502 19.7502 15.586 19.7502 16.0002C19.7502 16.4144 19.4144 16.7502 19.0002 16.7502H10.9453C9.57776 16.7502 8.47541 16.7502 7.60845 16.6337C6.70834 16.5127 5.95047 16.2538 5.34855 15.6519C4.74664 15.0499 4.48774 14.2921 4.36673 13.392C4.25017 12.525 4.25018 11.4227 4.2502 10.0551L4.2502 7.38324C4.2502 6.67024 4.24907 6.19848 4.20785 5.83747C4.16883 5.49562 4.10068 5.33074 4.01426 5.21083C3.92784 5.09093 3.79296 4.97414 3.481 4.82901C3.15155 4.67575 2.70435 4.52549 2.02794 4.30002L1.76303 4.21172C1.37008 4.08073 1.15771 3.65599 1.28869 3.26303ZM5.80693 12.7502H16.022C16.5179 12.7502 16.8305 12.7492 17.0678 12.7236C17.287 12.6999 17.3713 12.661 17.424 12.6263C17.4766 12.5916 17.5455 12.5294 17.6537 12.3373C17.7707 12.1292 17.8948 11.8423 18.0901 11.3865L18.5187 10.3865C18.9332 9.41932 19.2087 8.77152 19.3379 8.28145C19.4636 7.80522 19.3999 7.66069 19.3515 7.58734C19.3032 7.51398 19.1954 7.39853 18.7082 7.3264C18.2068 7.25218 17.5029 7.2502 16.4506 7.2502H5.7502C5.75021 7.28044 5.75021 7.31091 5.7502 7.34159L5.7502 10.0002C5.7502 11.1722 5.75127 12.0546 5.80693 12.7502Z" fill="#393A44"/>
<path fill-rule="evenodd" clip-rule="evenodd" d="M7.5002 22.2502C6.25756 22.2502 5.2502 21.2428 5.2502 20.0002C5.2502 18.7576 6.25756 17.7502 7.5002 17.7502C8.74284 17.7502 9.7502 18.7576 9.7502 20.0002C9.7502 21.2428 8.74284 22.2502 7.5002 22.2502ZM6.7502 20.0002C6.7502 20.4144 7.08599 20.7502 7.5002 20.7502C7.91442 20.7502 8.2502 20.4144 8.2502 20.0002C8.2502 19.586 7.91442 19.2502 7.5002 19.2502C7.08599 19.2502 6.7502 19.586 6.7502 20.0002Z" fill="#393A44"/>
<path fill-rule="evenodd" clip-rule="evenodd" d="M14.2502 20.0003C14.2502 21.2429 15.2576 22.2503 16.5002 22.2503C17.7428 22.2503 18.7502 21.2429 18.7502 20.0003C18.7502 18.7576 17.7428 17.7503 16.5002 17.7503C15.2576 17.7503 14.2502 18.7576 14.2502 20.0003ZM16.5002 20.7503C16.086 20.7503 15.7502 20.4145 15.7502 20.0003C15.7502 19.5861 16.086 19.2503 16.5002 19.2503C16.9144 19.2503 17.2502 19.5861 17.2502 20.0003C17.2502 20.4145 16.9144 20.7503 16.5002 20.7503Z" fill="#393A44"/>
</svg>
