<svg width="32" height="33" viewBox="0 0 32 33" fill="none" xmlns="http://www.w3.org/2000/svg">
<path opacity="0.1" fill-rule="evenodd" clip-rule="evenodd" d="M0 16.5308C0 7.69421 7.16344 0.530762 16 0.530762C24.8366 0.530762 32 7.69421 32 16.5308C32 25.3673 24.8366 32.5308 16 32.5308C7.16344 32.5308 0 25.3673 0 16.5308Z" fill="#393A44"/>
<path fill-rule="evenodd" clip-rule="evenodd" d="M24.5315 16.5188C24.5315 17.0959 24.4728 17.6722 24.3574 18.234C24.2448 18.7824 24.0782 19.3208 23.8598 19.8355C23.6465 20.341 23.3819 20.8282 23.0727 21.2826C22.7681 21.7341 22.4173 22.1577 22.0318 22.5438C21.6456 22.9282 21.2205 23.2781 20.7693 23.584C20.3134 23.891 19.8255 24.1553 19.3196 24.3696C18.8042 24.5868 18.2645 24.7532 17.7166 24.8655C17.1541 24.9812 16.5757 25.0403 15.9978 25.0403C15.4194 25.0403 14.8411 24.9812 14.2794 24.8655C13.7306 24.7532 13.191 24.5868 12.676 24.3696C12.1701 24.1553 11.6817 23.891 11.2259 23.584C10.7746 23.2782 10.3496 22.9282 9.96416 22.5438C9.57832 22.1577 9.22745 21.7341 8.92243 21.2826C8.61492 20.8282 8.34989 20.341 8.13572 19.8355C7.91735 19.3208 7.75028 18.7823 7.63736 18.234C7.52319 17.6722 7.46484 17.0959 7.46484 16.5188C7.46484 15.9413 7.52316 15.3638 7.63739 14.8033C7.75032 14.2548 7.91738 13.7156 8.13576 13.2017C8.34992 12.6958 8.61495 12.2082 8.92247 11.7538C9.22748 11.3019 9.57835 10.8791 9.96419 10.4926C10.3496 10.1081 10.7746 9.75904 11.2259 9.45364C11.6818 9.14529 12.1701 8.88111 12.676 8.66639C13.191 8.44874 13.7306 8.28191 14.2794 8.17041C14.8411 8.05558 15.4195 7.99731 15.9978 7.99731C16.5758 7.99731 17.1541 8.05558 17.7166 8.17041C18.2646 8.28194 18.8042 8.44877 19.3197 8.66639C19.8255 8.88108 20.3134 9.14529 20.7693 9.45364C21.2206 9.75904 21.6456 10.1081 22.0319 10.4926C22.4173 10.8791 22.7682 11.3019 23.0728 11.7538C23.3819 12.2082 23.6465 12.6958 23.8598 13.2017C24.0782 13.7156 24.2448 14.2548 24.3574 14.8033C24.4728 15.3638 24.5315 15.9413 24.5315 16.5188ZM12.8884 9.93669C10.8562 10.895 9.33948 12.7649 8.86653 15.0184C9.05865 15.0201 12.0955 15.0583 15.5944 14.13C14.3331 11.8923 12.9855 10.0661 12.8884 9.93669ZM16.1982 15.2506C12.4459 16.3723 8.84528 16.2916 8.71612 16.2866C8.71402 16.3649 8.71028 16.4406 8.71028 16.5188C8.71028 18.3883 9.41656 20.0926 10.5775 21.3812C10.575 21.3774 12.5693 17.8445 16.5019 16.5746C16.5969 16.543 16.6936 16.5146 16.7894 16.4872C16.6066 16.0736 16.4069 15.6592 16.1982 15.2506ZM20.8105 11.0572C19.5275 9.92753 17.8429 9.24228 15.9978 9.24228C15.4056 9.24228 14.831 9.31385 14.2806 9.44616C14.3897 9.59264 15.7586 11.4059 17.0049 13.6911C19.7546 12.6617 20.7926 11.0838 20.8105 11.0572ZM17.2862 17.693C17.27 17.6984 17.2537 17.703 17.2379 17.7088C12.9381 19.2056 11.534 22.2221 11.5188 22.255C12.756 23.2157 14.3077 23.7953 15.9978 23.7953C17.007 23.7953 17.9683 23.5902 18.8429 23.2187C18.735 22.5829 18.3117 20.3543 17.2862 17.693ZM20.0701 22.5538C21.7064 21.4511 22.8685 19.7002 23.1927 17.6722C23.0427 17.6239 21.0038 16.9794 18.6516 17.356C19.6075 19.979 19.9959 22.1152 20.0701 22.5538ZM17.5658 14.7754C17.735 15.1224 17.8987 15.4756 18.05 15.8306C18.1038 15.9579 18.1563 16.0828 18.2075 16.2076C20.711 15.893 23.1773 16.4223 23.2828 16.4439C23.2661 14.7188 22.6481 13.1356 21.6256 11.8961C21.6119 11.9156 20.443 13.602 17.5658 14.7754Z" fill="#393A44"/>
</svg>
