<svg width="24" height="25" viewBox="0 0 24 25" fill="none" xmlns="http://www.w3.org/2000/svg">
<path d="M8.96173 19.4111L9.42605 18.8221L8.96173 19.4111ZM12 6.00088L11.4596 6.52098C11.463 6.52445 11.4664 6.52789 11.4698 6.5313L12 6.00088ZM15.0383 19.4111L15.5026 20.0001L15.0383 19.4111ZM13.4698 8.53058C13.7627 8.82342 14.2376 8.82333 14.5304 8.53039C14.8233 8.23744 14.8232 7.76257 14.5302 7.46973L13.4698 8.53058ZM9.42605 18.8221C7.91039 17.6273 6.25307 16.4605 4.93829 14.98C3.64922 13.5285 2.75 11.8347 2.75 9.63734H1.25C1.25 12.3029 2.3605 14.3363 3.81672 15.976C5.24723 17.5868 7.07077 18.8755 8.49742 20.0001L9.42605 18.8221ZM2.75 9.63734C2.75 7.48647 3.96537 5.68277 5.62436 4.92444C7.23607 4.18772 9.40166 4.38282 11.4596 6.52098L12.5404 5.48078C10.0985 2.94377 7.26409 2.52563 5.00076 3.5602C2.78471 4.57317 1.25 6.92527 1.25 9.63734H2.75ZM8.49742 20.0001C9.00965 20.4039 9.55954 20.8345 10.1168 21.1602C10.6739 21.4857 11.3096 21.7502 12 21.7502V20.2502C11.6904 20.2502 11.3261 20.1295 10.8736 19.8651C10.4213 19.6008 9.95208 19.2368 9.42605 18.8221L8.49742 20.0001ZM15.5026 20.0001C16.9292 18.8755 18.7528 17.5868 20.1833 15.976C21.6395 14.3363 22.75 12.3029 22.75 9.63734H21.25C21.25 11.8347 20.3508 13.5285 19.0617 14.98C17.7469 16.4605 16.0896 17.6273 14.574 18.8221L15.5026 20.0001ZM22.75 9.63734C22.75 6.92527 21.2153 4.57317 18.9992 3.5602C16.7359 2.52563 13.9015 2.94377 11.4596 5.48078L12.5404 6.52098C14.5983 4.38282 16.7639 4.18772 18.3756 4.92444C20.0346 5.68277 21.25 7.48647 21.25 9.63734H22.75ZM14.574 18.8221C14.0479 19.2368 13.5787 19.6008 13.1264 19.8651C12.6739 20.1295 12.3096 20.2502 12 20.2502V21.7502C12.6904 21.7502 13.3261 21.4857 13.8832 21.1602C14.4405 20.8345 14.9903 20.4039 15.5026 20.0001L14.574 18.8221ZM11.4698 6.5313L13.4698 8.53058L14.5302 7.46973L12.5302 5.47045L11.4698 6.5313Z" fill="#393A44"/>
</svg>
