<svg width="32" height="33" viewBox="0 0 32 33" fill="none" xmlns="http://www.w3.org/2000/svg">
<path opacity="0.1" fill-rule="evenodd" clip-rule="evenodd" d="M0 16.5308C0 7.69421 7.16344 0.530762 16 0.530762C24.8366 0.530762 32 7.69421 32 16.5308C32 25.3673 24.8366 32.5308 16 32.5308C7.16344 32.5308 0 25.3673 0 16.5308Z" fill="#393A44"/>
<path fill-rule="evenodd" clip-rule="evenodd" d="M15.999 7.99731C13.6814 7.99731 13.3906 8.00745 12.4804 8.04887C11.5719 8.09047 10.9518 8.23429 10.4092 8.44532C9.84798 8.66328 9.37189 8.95484 8.89757 9.42933C8.4229 9.90365 8.13134 10.3797 7.91267 10.9408C7.70111 11.4836 7.55711 12.1038 7.51622 13.0119C7.47551 13.9222 7.46484 14.2132 7.46484 16.5307C7.46484 18.8483 7.47515 19.1382 7.5164 20.0485C7.55818 20.9569 7.702 21.577 7.91285 22.1196C8.13098 22.6808 8.42254 23.1569 8.89704 23.6313C9.37117 24.1059 9.84727 24.3982 10.4082 24.6162C10.9511 24.8272 11.5714 24.971 12.4797 25.0126C13.3899 25.054 13.6806 25.0642 15.9979 25.0642C18.3156 25.0642 18.6056 25.054 19.5158 25.0126C20.4243 24.971 21.0451 24.8272 21.588 24.6162C22.1491 24.3982 22.6245 24.1059 23.0986 23.6313C23.5733 23.1569 23.8648 22.6808 24.0835 22.1198C24.2933 21.577 24.4373 20.9567 24.48 20.0486C24.5208 19.1384 24.5315 18.8483 24.5315 16.5307C24.5315 14.2132 24.5208 13.9224 24.48 13.0121C24.4373 12.1037 24.2933 11.4836 24.0835 10.941C23.8648 10.3797 23.5733 9.90365 23.0986 9.42933C22.6239 8.95466 22.1493 8.6631 21.5875 8.44532C21.0435 8.23429 20.423 8.09047 19.5146 8.04887C18.6043 8.00745 18.3146 7.99731 15.9963 7.99731H15.999ZM15.2334 9.53508C15.4606 9.53473 15.7141 9.53508 15.9989 9.53508C18.2774 9.53508 18.5474 9.54326 19.4472 9.58415C20.2792 9.6222 20.7307 9.76122 21.0315 9.87802C21.4298 10.0327 21.7137 10.2176 22.0122 10.5163C22.3108 10.8149 22.4957 11.0994 22.6507 11.4976C22.7675 11.798 22.9067 12.2496 22.9446 13.0816C22.9855 13.9812 22.9944 14.2514 22.9944 16.5288C22.9944 18.8061 22.9855 19.0763 22.9446 19.9759C22.9066 20.8079 22.7675 21.2595 22.6507 21.5599C22.4961 21.9581 22.3108 22.2417 22.0122 22.5402C21.7135 22.8389 21.4299 23.0238 21.0315 23.1784C20.7311 23.2958 20.2792 23.4344 19.4472 23.4725C18.5476 23.5134 18.2774 23.5223 15.9989 23.5223C13.7203 23.5223 13.4503 23.5134 12.5507 23.4725C11.7187 23.4341 11.2672 23.295 10.9662 23.1782C10.568 23.0236 10.2835 22.8387 9.98483 22.54C9.68616 22.2414 9.50127 21.9576 9.34625 21.5592C9.22945 21.2588 9.09025 20.8072 9.05238 19.9752C9.01149 19.0756 9.00331 18.8054 9.00331 16.5266C9.00331 14.2478 9.01149 13.979 9.05238 13.0795C9.09042 12.2475 9.22945 11.7959 9.34625 11.4951C9.50092 11.0969 9.68616 10.8124 9.98483 10.5138C10.2835 10.2151 10.568 10.0302 10.9662 9.87518C11.267 9.75784 11.7187 9.61917 12.5507 9.58095C13.3379 9.5454 13.643 9.53473 15.2334 9.53295V9.53508ZM20.554 10.952C19.9887 10.952 19.53 11.4101 19.53 11.9756C19.53 12.541 19.9887 12.9997 20.554 12.9997C21.1194 12.9997 21.578 12.541 21.578 11.9756C21.578 11.4103 21.1194 10.952 20.554 10.952ZM15.999 12.1484C13.5789 12.1484 11.6167 14.1106 11.6167 16.5307C11.6167 18.9508 13.5789 20.9121 15.999 20.9121C18.4191 20.9121 20.3805 18.9508 20.3805 16.5307C20.3805 14.1106 18.4191 12.1484 15.999 12.1484ZM15.999 13.6862C17.5698 13.6862 18.8434 14.9597 18.8434 16.5307C18.8434 18.1016 17.5698 19.3752 15.999 19.3752C14.4279 19.3752 13.1545 18.1016 13.1545 16.5307C13.1545 14.9597 14.4279 13.6862 15.999 13.6862Z" fill="#393A44"/>
</svg>
