<svg width="21" height="24" viewBox="0 0 21 24" fill="none" xmlns="http://www.w3.org/2000/svg">
<path d="M10.3219 13.6924C11.8688 13.6924 13.2985 13.2564 14.4422 12.5158C15.3282 11.9486 16.4813 12.0424 17.2594 12.7502C19.4204 14.7096 20.6485 17.4893 20.6438 20.4096V21.6611C20.6438 22.9549 19.5938 24.0002 18.3001 24.0002H2.3438C1.05005 24.0002 5.32836e-05 22.9549 5.32836e-05 21.6611V20.4096C-0.00932172 17.4939 1.2188 14.7096 3.37974 12.7549C4.15787 12.0471 5.31568 11.9533 6.19693 12.5205C7.34537 13.2564 8.77037 13.6924 10.3219 13.6924Z" fill="#777777"/>
<path d="M10.3219 11.6063C13.5269 11.6063 16.125 9.0081 16.125 5.80313C16.125 2.59815 13.5269 0 10.3219 0C7.11695 0 4.5188 2.59815 4.5188 5.80313C4.5188 9.0081 7.11695 11.6063 10.3219 11.6063Z" fill="#777777"/>
</svg>
