<svg width="32" height="33" viewBox="0 0 32 33" fill="none" xmlns="http://www.w3.org/2000/svg">
<path opacity="0.1" fill-rule="evenodd" clip-rule="evenodd" d="M0 16.5308C0 7.69421 7.16344 0.530762 16 0.530762C24.8366 0.530762 32 7.69421 32 16.5308C32 25.3673 24.8366 32.5308 16 32.5308C7.16344 32.5308 0 25.3673 0 16.5308Z" fill="#393A44"/>
<path fill-rule="evenodd" clip-rule="evenodd" d="M15.5208 13.5359L15.5544 14.0895L14.9948 14.0217C12.9579 13.7618 11.1784 12.8805 9.66756 11.4004L8.92891 10.666L8.73865 11.2083C8.33575 12.4173 8.59316 13.694 9.43253 14.5527C9.8802 15.0273 9.77948 15.0951 9.00725 14.8126C8.73865 14.7222 8.50363 14.6544 8.48124 14.6883C8.4029 14.7674 8.6715 15.7956 8.88414 16.2024C9.17513 16.7673 9.76828 17.3209 10.4174 17.6486L10.9658 17.9085L10.3167 17.9198C9.68994 17.9198 9.66756 17.9311 9.73471 18.1683C9.95854 18.9027 10.8427 19.6824 11.8276 20.0213L12.5214 20.2586L11.9171 20.6201C11.0218 21.1399 9.96973 21.4336 8.91772 21.4562C8.41409 21.4675 8 21.5127 8 21.5466C8 21.6596 9.36538 22.2923 10.16 22.5409C12.5438 23.2753 15.3753 22.959 17.5017 21.7048C19.0126 20.8122 20.5235 19.0383 21.2286 17.3209C21.6091 16.4057 21.9896 14.7335 21.9896 13.9313C21.9896 13.4116 22.0232 13.3438 22.6499 12.7224C23.0192 12.3608 23.3662 11.9653 23.4333 11.8524C23.5452 11.6377 23.534 11.6377 22.9633 11.8298C22.012 12.1687 21.8777 12.1235 22.3477 11.6151C22.6947 11.2535 23.1088 10.5982 23.1088 10.4061C23.1088 10.3722 22.9409 10.4287 22.7506 10.5304C22.5492 10.6434 22.1015 10.8129 21.7658 10.9146L21.1614 11.1066L20.613 10.7338C20.3108 10.5304 19.8856 10.3044 19.6617 10.2366C19.0909 10.0785 18.218 10.1011 17.7032 10.2818C16.3042 10.7903 15.4201 12.1009 15.5208 13.5359Z" fill="#393A44"/>
</svg>
