<svg width="32" height="33" viewBox="0 0 32 33" fill="none" xmlns="http://www.w3.org/2000/svg">
<path opacity="0.1" fill-rule="evenodd" clip-rule="evenodd" d="M0 16.5308C0 7.69421 7.16344 0.530762 16 0.530762C24.8366 0.530762 32 7.69421 32 16.5308C32 25.3673 24.8366 32.5308 16 32.5308C7.16344 32.5308 0 25.3673 0 16.5308Z" fill="#393A44"/>
<path fill-rule="evenodd" clip-rule="evenodd" d="M22.6659 11.0303C23.4003 11.2318 23.9786 11.8255 24.1749 12.5795C24.5315 13.9461 24.5315 16.7974 24.5315 16.7974C24.5315 16.7974 24.5315 19.6486 24.1749 21.0152C23.9786 21.7693 23.4003 22.363 22.6659 22.5646C21.3351 22.9307 15.9982 22.9307 15.9982 22.9307C15.9982 22.9307 10.6613 22.9307 9.33035 22.5646C8.596 22.363 8.01767 21.7693 7.8214 21.0152C7.46484 19.6486 7.46484 16.7974 7.46484 16.7974C7.46484 16.7974 7.46484 13.9461 7.8214 12.5795C8.01767 11.8255 8.596 11.2318 9.33035 11.0303C10.6613 10.6641 15.9982 10.6641 15.9982 10.6641C15.9982 10.6641 21.3351 10.6641 22.6659 11.0303ZM14.3982 14.3973V19.7307L18.6649 17.0641L14.3982 14.3973Z" fill="#393A44"/>
</svg>
